G04 Generated by Ultiboard 14.0 *
%FSLAX34Y34*%
%MOMM*%

%ADD10C,0.0001*%
%ADD11C,0.6000*%
%ADD12C,0.7000*%
%ADD13C,0.8000*%
%ADD14C,0.2667*%
%ADD15C,0.1270*%
%ADD16C,2.0000*%
%ADD17R,1.0051X1.0051*%
%ADD18C,0.9949*%
%ADD19C,1.7000*%
%ADD20R,2.0000X2.0000*%
%ADD21R,1.6000X1.6000*%
%ADD22R,1.7000X1.7000*%
%ADD23C,6.0000*%


G04 ColorRGB 0000FF for the following layer *
%LNCopper Bottom*%
%LPD*%
G54D10*
G54D11*
X334645Y28575D02*
X335280Y27940D01*
X60113Y106680D02*
X62653Y104140D01*
X46567Y106680D02*
X60537Y106680D01*
X62653Y104140D02*
X137160Y104140D01*
X35560Y117687D02*
X46567Y106680D01*
X162560Y78740D02*
X137160Y104140D01*
X162560Y78740D02*
X162560Y76200D01*
X651510Y172720D02*
X624840Y172720D01*
X274320Y482600D02*
X496570Y482600D01*
X223520Y340360D02*
X223520Y431800D01*
X496570Y482600D02*
X523240Y455930D01*
X523240Y411480D01*
X223520Y292100D02*
X223520Y297180D01*
X464820Y411480D02*
X523240Y411480D01*
X678180Y439420D02*
X523240Y439420D01*
X266700Y248920D02*
X223520Y292100D01*
X464820Y411480D02*
X447040Y393700D01*
X678180Y439420D02*
X695960Y421640D01*
X266700Y248920D02*
X269240Y248920D01*
X457200Y403860D02*
X447040Y393700D01*
X447040Y299720D02*
X447040Y393700D01*
X457200Y403860D02*
X457200Y462280D01*
X695960Y375176D02*
X695216Y375920D01*
X645160Y375920D01*
X695960Y375176D02*
X695960Y281940D01*
X640080Y281940D02*
X657860Y281940D01*
X637540Y279400D02*
X640080Y281940D01*
X637540Y279400D02*
X637540Y248920D01*
X650240Y248920D02*
X624840Y248920D01*
X294640Y28723D02*
X294640Y66040D01*
X295910Y64770D02*
X274320Y86360D01*
X406400Y30480D02*
X403860Y27940D01*
X406400Y30480D02*
X406400Y71120D01*
X548640Y339090D02*
X548640Y411480D01*
X396240Y172720D02*
X419100Y195580D01*
X562610Y195580D01*
X574040Y184150D01*
X574040Y172720D01*
X370840Y172720D02*
X403860Y205740D01*
X684530Y205740D01*
X701040Y189230D01*
X701040Y172720D01*
X421640Y259080D02*
X421640Y248920D01*
X421640Y259080D02*
X431800Y269240D01*
X469900Y269240D01*
X574040Y235585D02*
X574040Y248920D01*
X670560Y218440D02*
X477520Y218440D01*
X701040Y248920D02*
X670560Y218440D01*
X447040Y248920D02*
X477520Y218440D01*
X508000Y231140D02*
X569595Y231140D01*
X469900Y269240D02*
X508000Y231140D01*
X569595Y231140D02*
X574040Y235585D01*
X675640Y299720D02*
X675640Y247650D01*
X655320Y320040D02*
X675640Y299720D01*
X655320Y320040D02*
X645160Y320040D01*
X599440Y299720D02*
X599440Y248920D01*
X619760Y320040D02*
X599440Y299720D01*
X637540Y124460D02*
X637540Y172720D01*
X458996Y27940D02*
X553720Y122664D01*
X553720Y124460D01*
X335280Y27940D02*
X458996Y27940D01*
X238760Y134620D02*
X269240Y165100D01*
X238760Y134620D02*
X238760Y132080D01*
X259080Y64135D02*
X259080Y154940D01*
X269240Y165100D02*
X269240Y175260D01*
X243205Y48260D02*
X259080Y64135D01*
X269240Y175260D02*
X269240Y198120D01*
X152400Y48260D02*
X243205Y48260D01*
X269240Y198120D02*
X276860Y205740D01*
X137160Y63500D02*
X152400Y48260D01*
X276860Y205740D02*
X299720Y205740D01*
X137160Y63500D02*
X137160Y76200D01*
X320040Y226060D02*
X299720Y205740D01*
X320040Y226060D02*
X320040Y248920D01*
X276860Y292100D01*
X276860Y297815D01*
X276860Y390637D02*
X276860Y340360D01*
X297703Y411480D02*
X276860Y390637D01*
X417142Y411480D02*
X297703Y411480D01*
X421640Y406982D02*
X417142Y411480D01*
X421640Y284480D02*
X421640Y452120D01*
X426720Y279400D02*
X421640Y284480D01*
X431800Y462280D02*
X421640Y452120D01*
X426720Y279400D02*
X513080Y279400D01*
X523240Y289560D01*
X523240Y306705D02*
X523240Y289560D01*
X528955Y312420D02*
X523240Y306705D01*
X560070Y312420D02*
X528955Y312420D01*
X571500Y323850D02*
X560070Y312420D01*
X571500Y323850D02*
X571500Y387350D01*
X585470Y401320D02*
X571500Y387350D01*
X703580Y401320D02*
X585470Y401320D01*
X726440Y378460D02*
X703580Y401320D01*
X726440Y101600D02*
X726440Y378460D01*
X726440Y101600D02*
X695960Y71120D01*
X679450Y71120D01*
X600075Y71120D02*
X680720Y71120D01*
X576580Y94615D02*
X600075Y71120D01*
X576580Y94615D02*
X576580Y124460D01*
X576580Y125512D02*
X576580Y137160D01*
X548640Y165100D01*
X548640Y172720D01*
X294640Y162560D02*
X274320Y142240D01*
X294640Y162560D02*
X294640Y172720D01*
X274320Y142240D02*
X274320Y86360D01*
X35560Y294640D02*
X35560Y117687D01*
X91440Y350520D02*
X142240Y350520D01*
X274320Y482600D01*
X91440Y350520D02*
X35560Y294640D01*
X106680Y27940D02*
X60960Y73660D01*
X60960Y105833D01*
X106680Y27940D02*
X334010Y27940D01*
G54D12*
X320040Y91440D02*
X320040Y172720D01*
X345440Y66040D02*
X320040Y91440D01*
X320040Y141182D02*
X300778Y121920D01*
X297180Y121920D01*
X345440Y172720D02*
X345440Y121920D01*
X406400Y121920D01*
X193040Y101600D02*
X193040Y172720D01*
X187960Y96520D02*
X193040Y101600D01*
X187960Y96520D02*
X187960Y76200D01*
X218440Y99060D02*
X218440Y172720D01*
X213360Y93980D02*
X218440Y99060D01*
X213360Y93980D02*
X213360Y76200D01*
X111760Y132080D02*
X86360Y157480D01*
X86360Y172720D01*
X60960Y172720D02*
X116840Y172720D01*
X60113Y171873D02*
X60960Y172720D01*
X58420Y175260D02*
X60960Y172720D01*
X58420Y269240D02*
X58420Y175260D01*
X106680Y317500D02*
X58420Y269240D01*
X106680Y317500D02*
X302260Y317500D01*
X320040Y299720D01*
X582060Y289560D02*
X574040Y289560D01*
X585000Y292500D02*
X582060Y289560D01*
X585000Y342100D02*
X585000Y292500D01*
X618820Y375920D02*
X585000Y342100D01*
X618820Y375920D02*
X619760Y375920D01*
G54D13*
X345440Y335280D02*
X345440Y248920D01*
X370840Y299720D02*
X370840Y248920D01*
X396240Y248920D02*
X396240Y391160D01*
X548640Y248920D02*
X548640Y289560D01*
X609600Y96520D02*
X624840Y96520D01*
X660400Y96520D02*
X675640Y111760D01*
X660400Y96520D02*
X650240Y96520D01*
X599440Y106680D02*
X599440Y170180D01*
X675640Y111760D02*
X675640Y172720D01*
X609600Y96520D02*
X599440Y106680D01*
X279400Y462280D02*
X345440Y462280D01*
G54D14*
X595113Y17591D02*
X598527Y14163D01*
X601940Y14163D01*
X605353Y17591D01*
X605353Y27877D01*
X601940Y31306D01*
X598527Y31306D01*
X595113Y27877D01*
X589993Y14163D02*
X589993Y31306D01*
X583167Y31306D01*
X579753Y27877D01*
X579753Y26163D01*
X583167Y22734D01*
X589993Y22734D01*
X564393Y14163D02*
X574633Y14163D01*
X574633Y22734D01*
X574633Y31306D01*
X564393Y31306D01*
X574633Y22734D02*
X567807Y22734D01*
X543913Y27877D02*
X540500Y31306D01*
X537087Y31306D01*
X533673Y27877D01*
X533673Y17591D01*
X537087Y14163D01*
X540500Y14163D01*
X543913Y17591D01*
X543913Y27877D01*
X533673Y27877D02*
X543913Y17591D01*
X528553Y27877D02*
X525140Y31306D01*
X521727Y31306D01*
X518313Y27877D01*
X518313Y17591D01*
X521727Y14163D01*
X525140Y14163D01*
X528553Y17591D01*
X528553Y27877D01*
X518313Y27877D02*
X528553Y17591D01*
X504660Y31306D02*
X509780Y31306D01*
X513193Y27877D01*
X513193Y21020D01*
X513193Y17591D01*
X509780Y14163D01*
X506367Y14163D01*
X502953Y17591D01*
X502953Y21020D01*
X506367Y24449D01*
X509780Y24449D01*
X513193Y21020D01*
X605353Y44643D02*
X598527Y44643D01*
X595113Y48071D01*
X595113Y58357D01*
X598527Y61786D01*
X605353Y61786D01*
X603647Y61786D02*
X603647Y44643D01*
X589993Y44643D02*
X589993Y61786D01*
X579753Y44643D01*
X579753Y61786D01*
X574633Y48071D02*
X571220Y44643D01*
X567807Y44643D01*
X564393Y48071D01*
X574633Y58357D01*
X571220Y61786D01*
X567807Y61786D01*
X564393Y58357D01*
X554153Y44643D02*
X554153Y61786D01*
X559273Y61786D02*
X549033Y61786D01*
X543913Y61786D02*
X538793Y44643D01*
X533673Y61786D01*
X679013Y472251D02*
X675600Y468823D01*
X672187Y468823D01*
X668773Y472251D01*
X679013Y482537D01*
X675600Y485966D01*
X672187Y485966D01*
X668773Y482537D01*
X663653Y472251D02*
X660240Y468823D01*
X656827Y468823D01*
X653413Y472251D01*
X653413Y477394D01*
X656827Y480823D01*
X660240Y480823D01*
X663653Y477394D01*
X663653Y472251D01*
X639760Y470537D02*
X641467Y468823D01*
X644880Y468823D01*
X648293Y472251D01*
X648293Y477394D01*
X644880Y480823D01*
X641467Y480823D01*
X639760Y479109D01*
X624400Y470537D02*
X626107Y468823D01*
X629520Y468823D01*
X632933Y472251D01*
X632933Y477394D01*
X629520Y480823D01*
X626107Y480823D01*
X624400Y479109D01*
X607333Y472251D02*
X610747Y468823D01*
X614160Y468823D01*
X617573Y472251D01*
X617573Y477394D01*
X614160Y480823D01*
X610747Y480823D01*
X607333Y477394D01*
X609040Y475680D01*
X617573Y475680D01*
X602213Y475680D02*
X597093Y480823D01*
X595387Y480823D01*
X591973Y477394D01*
X602213Y468823D02*
X602213Y480823D01*
X571493Y468823D02*
X564667Y468823D01*
X561253Y472251D01*
X561253Y473966D01*
X564667Y477394D01*
X561253Y480823D01*
X561253Y482537D01*
X564667Y485966D01*
X569787Y485966D01*
X571493Y485966D01*
X569787Y477394D02*
X564667Y477394D01*
X569787Y485966D02*
X569787Y468823D01*
X556133Y472251D02*
X552720Y468823D01*
X549307Y468823D01*
X545893Y472251D01*
X545893Y477394D01*
X549307Y480823D01*
X552720Y480823D01*
X556133Y477394D01*
X556133Y472251D01*
X532240Y470537D02*
X533947Y468823D01*
X535653Y470537D01*
X535653Y485966D01*
X539067Y480823D02*
X532240Y480823D01*
X181173Y470663D02*
X176053Y458663D01*
X170933Y470663D01*
X164107Y472377D02*
X160693Y475806D01*
X160693Y458663D01*
X165813Y458663D02*
X155573Y458663D01*
X145333Y458663D02*
X145333Y460377D01*
X135093Y472377D02*
X131680Y475806D01*
X128267Y475806D01*
X124853Y472377D01*
X124853Y462091D01*
X128267Y458663D01*
X131680Y458663D01*
X135093Y462091D01*
X135093Y472377D01*
X124853Y472377D02*
X135093Y462091D01*
G54D15*
X-2540Y-2540D02*
X-2540Y48768D01*
X-2540Y-2540D02*
X74168Y-2540D01*
X764540Y-2540D02*
X687832Y-2540D01*
X764540Y-2540D02*
X764540Y48768D01*
X764540Y510540D02*
X764540Y459232D01*
X764540Y510540D02*
X687832Y510540D01*
X-2540Y510540D02*
X74168Y510540D01*
X-2540Y510540D02*
X-2540Y459232D01*
X-52540Y-2540D02*
X-152540Y-2540D01*
X-102540Y-52540D02*
X-102540Y47460D01*
X-140040Y-2540D02*
G75*
D01*
G02X-140040Y-2540I37500J0*
G01*
X814540Y-2540D02*
X914540Y-2540D01*
X864540Y-52540D02*
X864540Y47460D01*
X827040Y-2540D02*
G75*
D01*
G02X827040Y-2540I37500J0*
G01*
X852040Y-2540D02*
G75*
D01*
G02X852040Y-2540I12500J0*
G01*
X-52540Y510540D02*
X-152540Y510540D01*
X-102540Y460540D02*
X-102540Y560540D01*
X-140040Y510540D02*
G75*
D01*
G02X-140040Y510540I37500J0*
G01*
X-127540Y510540D02*
G75*
D01*
G02X-127540Y510540I25000J0*
G01*
X-115040Y510540D02*
G75*
D01*
G02X-115040Y510540I12500J0*
G01*
G54D16*
X137160Y76200D03*
X162560Y76200D03*
X213360Y76200D03*
X187960Y76200D03*
X238760Y76200D03*
X294640Y66040D03*
X345440Y66040D03*
X345440Y121920D03*
X296757Y121920D03*
X421640Y299720D03*
X396240Y299720D03*
X345440Y299720D03*
X370840Y299720D03*
X320040Y299720D03*
X548640Y340360D03*
X421640Y340360D03*
X421640Y391160D03*
X396240Y391160D03*
X619760Y320040D03*
X15240Y171873D03*
X60113Y171873D03*
X15240Y106680D03*
X60113Y106680D03*
X238760Y132080D03*
X111760Y132080D03*
X548640Y172720D03*
X726440Y172720D03*
X675640Y248920D03*
X701040Y248920D03*
X650240Y248920D03*
X599440Y248920D03*
X624840Y248920D03*
X574040Y248920D03*
X548640Y248920D03*
X574040Y172720D03*
X650240Y172720D03*
X675640Y172720D03*
X701040Y172720D03*
X599440Y172720D03*
X624840Y172720D03*
X726440Y248920D03*
X619760Y375920D03*
X548640Y289560D03*
X523240Y289560D03*
X345440Y462280D03*
X345440Y335280D03*
X431800Y462280D03*
X279400Y462280D03*
X254000Y462280D03*
X548640Y411480D03*
X523240Y411480D03*
X406400Y71120D03*
X406400Y121920D03*
X142240Y172720D03*
X167640Y172720D03*
X193040Y172720D03*
X243840Y172720D03*
X218440Y172720D03*
X269240Y172720D03*
X320040Y172720D03*
X294640Y172720D03*
X345440Y172720D03*
X370840Y172720D03*
X396240Y172720D03*
X421640Y172720D03*
X447040Y172720D03*
X116840Y172720D03*
X116840Y248920D03*
X142240Y248920D03*
X167640Y248920D03*
X193040Y248920D03*
X218440Y248920D03*
X243840Y248920D03*
X269240Y248920D03*
X294640Y248920D03*
X320040Y248920D03*
X345440Y248920D03*
X370840Y248920D03*
X396240Y248920D03*
X421640Y248920D03*
X447040Y248920D03*
X695960Y421640D03*
X695960Y375920D03*
X276860Y340360D03*
X276860Y297180D03*
X624840Y96520D03*
G54D17*
X111760Y76200D03*
X447040Y299720D03*
X447040Y391160D03*
X645160Y320040D03*
X645160Y375920D03*
X574040Y289560D03*
X457200Y462280D03*
X650240Y96520D03*
G54D18*
X106735Y71175D02*
X116785Y71175D01*
X116785Y81225D01*
X106735Y81225D01*
X106735Y71175D01*D02*
X442015Y294695D02*
X452065Y294695D01*
X452065Y304745D01*
X442015Y304745D01*
X442015Y294695D01*D02*
X442015Y386135D02*
X452065Y386135D01*
X452065Y396185D01*
X442015Y396185D01*
X442015Y386135D01*D02*
X640135Y315015D02*
X650185Y315015D01*
X650185Y325065D01*
X640135Y325065D01*
X640135Y315015D01*D02*
X640135Y370895D02*
X650185Y370895D01*
X650185Y380945D01*
X640135Y380945D01*
X640135Y370895D01*D02*
X569015Y284535D02*
X579065Y284535D01*
X579065Y294585D01*
X569015Y294585D01*
X569015Y284535D01*D02*
X452175Y457255D02*
X462225Y457255D01*
X462225Y467305D01*
X452175Y467305D01*
X452175Y457255D01*D02*
X645215Y91495D02*
X655265Y91495D01*
X655265Y101545D01*
X645215Y101545D01*
X645215Y91495D01*D02*
G54D19*
X695960Y281940D03*
X657860Y281940D03*
G54D20*
X223520Y340360D03*
X223520Y297180D03*
G54D21*
X637540Y124460D03*
G54D22*
X553720Y124460D03*
G54D23*
X43180Y464820D03*
X721360Y38100D03*
X721360Y469900D03*

M02*
