G04 Generated by Ultiboard 14.0 *
%FSLAX34Y34*%
%MOMM*%

%ADD10C,0.0001*%
%ADD11C,0.2032*%
%ADD12C,0.1270*%
%ADD13C,0.50000*%
%ADD14C,1.00000*%
%ADD15C,1.30000*%


G04 ColorRGB FFFF00 for the following layer *
%LNSilkscreen Top*%
%LPD*%
G54D10*
G54D11*
X100471Y54156D02*
X103293Y52645D01*
X106116Y52645D01*
X108938Y54156D01*
X108938Y60204D01*
X113171Y58692D02*
X115993Y60204D01*
X118816Y60204D01*
X121638Y58692D01*
X121638Y57936D01*
X113171Y52645D01*
X121638Y52645D01*
X121638Y53400D01*
X251460Y63500D02*
X99060Y63500D01*
X219710Y88900D02*
X124460Y88900D01*
X99060Y88900D02*
X99060Y63500D01*
X122343Y88900D02*
X122343Y80433D01*
X118110Y88900D02*
X99060Y88900D01*
X120227Y86783D02*
X122343Y88900D01*
X223943Y80433D02*
X224127Y80441D01*
X224311Y80465D01*
X224491Y80505D01*
X224667Y80561D01*
X224838Y80632D01*
X225001Y80717D01*
X225157Y80816D01*
X225304Y80929D01*
X225440Y81053D01*
X225564Y81189D01*
X225677Y81336D01*
X225776Y81492D01*
X225861Y81655D01*
X225932Y81826D01*
X225988Y82002D01*
X226028Y82182D01*
X226052Y82366D01*
X226060Y82550D01*
X226052Y82734D01*
X226028Y82918D01*
X225988Y83098D01*
X225932Y83274D01*
X225861Y83445D01*
X225776Y83608D01*
X225677Y83764D01*
X225564Y83911D01*
X225440Y84047D01*
X225304Y84171D01*
X225157Y84284D01*
X225001Y84383D01*
X224838Y84468D01*
X224667Y84539D01*
X224491Y84595D01*
X224311Y84635D01*
X224127Y84659D01*
X223943Y84667D01*
X221827Y84667D02*
X221827Y88900D01*
X221827Y84667D02*
X223943Y84667D01*
X251460Y88900D02*
X251460Y63500D01*
X221827Y80433D02*
X223943Y80433D01*
X251460Y88900D02*
X228177Y88900D01*
X226060Y88900D02*
X221827Y88900D01*
X317218Y77016D02*
X314396Y75505D01*
X311573Y75505D01*
X308751Y77016D01*
X308751Y81552D01*
X311573Y83064D01*
X314396Y83064D01*
X317218Y81552D01*
X322862Y82308D02*
X324273Y83064D01*
X327096Y83064D01*
X329918Y81552D01*
X329918Y80040D01*
X328507Y79284D01*
X329918Y78528D01*
X329918Y77016D01*
X327096Y75505D01*
X324273Y75505D01*
X322862Y76260D01*
X324273Y79284D02*
X328507Y79284D01*
X345440Y49107D02*
X346916Y49171D01*
X348380Y49364D01*
X349823Y49684D01*
X351232Y50128D01*
X352596Y50693D01*
X353907Y51375D01*
X355153Y52169D01*
X356325Y53068D01*
X357414Y54066D01*
X358412Y55155D01*
X359311Y56327D01*
X360105Y57573D01*
X360787Y58884D01*
X361352Y60248D01*
X361796Y61657D01*
X362116Y63100D01*
X362309Y64564D01*
X362373Y66040D01*
X362309Y67516D01*
X362116Y68980D01*
X361796Y70423D01*
X361352Y71832D01*
X360787Y73196D01*
X360105Y74507D01*
X359311Y75753D01*
X358412Y76925D01*
X357414Y78014D01*
X356325Y79012D01*
X355153Y79911D01*
X353907Y80705D01*
X352596Y81387D01*
X351232Y81952D01*
X349823Y82396D01*
X348380Y82716D01*
X346916Y82909D01*
X345440Y82973D01*
X294640Y82973D02*
X293164Y82909D01*
X291700Y82716D01*
X290257Y82396D01*
X288848Y81952D01*
X287484Y81387D01*
X286173Y80705D01*
X284927Y79911D01*
X283755Y79012D01*
X282666Y78014D01*
X281668Y76925D01*
X280769Y75753D01*
X279975Y74507D01*
X279293Y73196D01*
X278728Y71832D01*
X278284Y70423D01*
X277964Y68980D01*
X277771Y67516D01*
X277707Y66040D01*
X277771Y64564D01*
X277964Y63100D01*
X278284Y61657D01*
X278728Y60248D01*
X279293Y58884D01*
X279975Y57573D01*
X280769Y56327D01*
X281668Y55155D01*
X282666Y54066D01*
X283755Y53068D01*
X284927Y52169D01*
X286173Y51375D01*
X287484Y50693D01*
X288848Y50128D01*
X290257Y49684D01*
X291700Y49364D01*
X293164Y49171D01*
X294640Y49107D01*
X294640Y49107D01*
X345440Y82973D02*
X294640Y82973D01*
X345440Y49107D02*
X294640Y49107D01*
X325120Y66040D02*
X328930Y66040D01*
X325120Y73660D02*
X325120Y58420D01*
X316230Y73660D02*
X316230Y58420D01*
X314960Y58420D02*
X314960Y73660D01*
X314960Y66040D02*
X311150Y66040D01*
X322580Y73660D02*
X322580Y58420D01*
X323850Y58420D02*
X323850Y73660D01*
X317500Y58420D02*
X317500Y73660D01*
X311291Y113544D02*
X319758Y105985D01*
X311291Y105985D02*
X319758Y113544D01*
X325402Y112032D02*
X328224Y113544D01*
X328224Y105985D01*
X323991Y105985D02*
X332458Y105985D01*
X352848Y147320D02*
X289348Y147320D01*
X352848Y140970D02*
X289348Y140970D01*
X352848Y102870D02*
X289348Y102870D01*
X352848Y96520D02*
X289348Y96520D01*
X324908Y130810D02*
X317288Y130810D01*
X317288Y113030D02*
X324908Y113030D01*
X352848Y96520D02*
X355062Y96617D01*
X357259Y96906D01*
X359422Y97385D01*
X361535Y98052D01*
X363582Y98900D01*
X365548Y99923D01*
X367417Y101114D01*
X369175Y102462D01*
X370809Y103959D01*
X372306Y105593D01*
X373654Y107351D01*
X374845Y109220D01*
X375868Y111185D01*
X376716Y113233D01*
X377383Y115346D01*
X377862Y117509D01*
X378151Y119706D01*
X378248Y121920D01*
X378151Y124134D01*
X377862Y126331D01*
X377383Y128494D01*
X376716Y130607D01*
X375868Y132654D01*
X374845Y134620D01*
X373654Y136489D01*
X372306Y138247D01*
X370809Y139881D01*
X369175Y141378D01*
X367417Y142726D01*
X365548Y143917D01*
X363583Y144940D01*
X361535Y145788D01*
X359422Y146455D01*
X357259Y146934D01*
X355062Y147223D01*
X352848Y147320D01*
X352848Y147320D01*
X352848Y102870D02*
X354508Y102942D01*
X356156Y103159D01*
X357778Y103519D01*
X359363Y104019D01*
X360899Y104655D01*
X362373Y105422D01*
X363775Y106315D01*
X365093Y107327D01*
X366318Y108450D01*
X367441Y109675D01*
X368453Y110993D01*
X369346Y112395D01*
X370113Y113869D01*
X370749Y115405D01*
X371249Y116989D01*
X371609Y118612D01*
X371826Y120260D01*
X371898Y121920D01*
X371826Y123580D01*
X371609Y125228D01*
X371249Y126850D01*
X370749Y128435D01*
X370113Y129971D01*
X369346Y131445D01*
X368453Y132847D01*
X367441Y134165D01*
X366318Y135390D01*
X365093Y136513D01*
X363775Y137525D01*
X362373Y138418D01*
X360899Y139185D01*
X359363Y139821D01*
X357779Y140321D01*
X356156Y140681D01*
X354508Y140898D01*
X352848Y140970D01*
X352848Y140970D01*
X324908Y113030D02*
X324908Y130810D01*
X327448Y127000D02*
X327448Y116840D01*
X328718Y116840D02*
X328718Y127000D01*
X328718Y121920D02*
X332528Y121920D01*
X289348Y147320D02*
X287134Y147223D01*
X284937Y146934D01*
X282774Y146455D01*
X280661Y145788D01*
X278613Y144940D01*
X276648Y143917D01*
X274779Y142726D01*
X273021Y141378D01*
X271387Y139881D01*
X269890Y138247D01*
X268542Y136489D01*
X267351Y134620D01*
X266328Y132655D01*
X265480Y130607D01*
X264813Y128494D01*
X264334Y126331D01*
X264045Y124134D01*
X263948Y121920D01*
X264045Y119706D01*
X264334Y117509D01*
X264813Y115346D01*
X265480Y113233D01*
X266328Y111185D01*
X267351Y109220D01*
X268542Y107351D01*
X269890Y105593D01*
X271387Y103959D01*
X273021Y102462D01*
X274779Y101114D01*
X276648Y99923D01*
X278613Y98900D01*
X280661Y98052D01*
X282774Y97385D01*
X284937Y96906D01*
X287134Y96617D01*
X289348Y96520D01*
X289348Y96520D01*
X289348Y140970D02*
X287688Y140898D01*
X286040Y140681D01*
X284417Y140321D01*
X282833Y139821D01*
X281297Y139185D01*
X279823Y138418D01*
X278421Y137525D01*
X277103Y136513D01*
X275878Y135390D01*
X274755Y134165D01*
X273743Y132847D01*
X272850Y131445D01*
X272083Y129971D01*
X271447Y128435D01*
X270947Y126851D01*
X270587Y125228D01*
X270370Y123580D01*
X270298Y121920D01*
X270370Y120260D01*
X270587Y118612D01*
X270947Y116989D01*
X271447Y115405D01*
X272083Y113869D01*
X272850Y112395D01*
X273743Y110993D01*
X274755Y109675D01*
X275878Y108450D01*
X277103Y107327D01*
X278421Y106315D01*
X279823Y105422D01*
X281297Y104655D01*
X282833Y104019D01*
X284417Y103519D01*
X286040Y103159D01*
X287688Y102942D01*
X289348Y102870D01*
X289348Y102870D01*
X317288Y113030D02*
X317288Y130810D01*
X314748Y116840D02*
X314748Y127000D01*
X313478Y116840D02*
X313478Y127000D01*
X313478Y121920D02*
X309668Y121920D01*
X458329Y321764D02*
X455507Y323275D01*
X452684Y323275D01*
X449862Y321764D01*
X449862Y315716D01*
X444218Y317228D02*
X441396Y315716D01*
X441396Y323275D01*
X445629Y323275D02*
X437162Y323275D01*
X307340Y312420D02*
X459740Y312420D01*
X339090Y287020D02*
X434340Y287020D01*
X459740Y287020D02*
X459740Y312420D01*
X436457Y287020D02*
X436457Y295487D01*
X440690Y287020D02*
X459740Y287020D01*
X438573Y289137D02*
X436457Y287020D01*
X334857Y295487D02*
X334673Y295479D01*
X334489Y295455D01*
X334309Y295415D01*
X334133Y295359D01*
X333962Y295288D01*
X333799Y295203D01*
X333643Y295104D01*
X333496Y294991D01*
X333360Y294867D01*
X333236Y294731D01*
X333123Y294584D01*
X333024Y294428D01*
X332939Y294265D01*
X332868Y294094D01*
X332812Y293918D01*
X332772Y293738D01*
X332748Y293554D01*
X332740Y293370D01*
X332748Y293186D01*
X332772Y293002D01*
X332812Y292822D01*
X332868Y292646D01*
X332939Y292475D01*
X333024Y292312D01*
X333123Y292156D01*
X333236Y292009D01*
X333360Y291873D01*
X333496Y291749D01*
X333643Y291636D01*
X333799Y291537D01*
X333962Y291452D01*
X334133Y291381D01*
X334309Y291325D01*
X334489Y291285D01*
X334673Y291261D01*
X334857Y291253D01*
X336973Y291253D02*
X336973Y287020D01*
X336973Y291253D02*
X334857Y291253D01*
X307340Y287020D02*
X307340Y312420D01*
X336973Y295487D02*
X334857Y295487D01*
X307340Y287020D02*
X330623Y287020D01*
X332740Y287020D02*
X336973Y287020D01*
X508284Y346215D02*
X508284Y335481D01*
X498877Y335481D01*
X494173Y337628D01*
X494173Y338701D01*
X498877Y340848D01*
X508284Y340848D01*
X505932Y340848D02*
X494173Y346215D01*
X484766Y336554D02*
X482414Y335481D01*
X477710Y335481D01*
X473006Y337628D01*
X473006Y339774D01*
X475358Y340848D01*
X473006Y341921D01*
X473006Y344068D01*
X477710Y346215D01*
X482414Y346215D01*
X484766Y345142D01*
X482414Y340848D02*
X475358Y340848D01*
X535940Y353060D02*
X434340Y353060D01*
X434340Y327660D02*
X535940Y327660D01*
X535940Y353060D01*
X434340Y353060D02*
X434340Y327660D01*
X410351Y407216D02*
X413173Y405705D01*
X415996Y405705D01*
X418818Y407216D01*
X418818Y413264D01*
X428696Y405705D02*
X425873Y405705D01*
X423051Y407216D01*
X423051Y408728D01*
X424462Y409484D01*
X423051Y410240D01*
X423051Y411752D01*
X425873Y413264D01*
X428696Y413264D01*
X431518Y411752D01*
X431518Y410240D01*
X430107Y409484D01*
X431518Y408728D01*
X431518Y407216D01*
X428696Y405705D01*
X424462Y409484D02*
X430107Y409484D01*
X459740Y378460D02*
X459740Y403860D01*
X383540Y378460D02*
X383540Y403860D01*
X383540Y378460D02*
X434340Y378460D01*
X440690Y378460D02*
X459740Y378460D01*
X436457Y378460D02*
X436457Y386927D01*
X438573Y380577D02*
X436457Y378460D01*
X383540Y403860D02*
X459740Y403860D01*
X656449Y342084D02*
X653627Y343595D01*
X650804Y343595D01*
X647982Y342084D01*
X647982Y336036D01*
X635282Y340572D02*
X643749Y340572D01*
X636693Y336036D01*
X636693Y343595D01*
X638104Y343595D02*
X635282Y343595D01*
X607060Y332740D02*
X657860Y332740D01*
X638810Y307340D02*
X657860Y307340D01*
X657860Y332740D01*
X607060Y307340D02*
X630343Y307340D01*
X634577Y307340D02*
X634577Y315807D01*
X636693Y309457D02*
X634577Y307340D01*
X607060Y307340D02*
X607060Y332740D01*
X29351Y112576D02*
X32173Y111065D01*
X34996Y111065D01*
X37818Y112576D01*
X29351Y117112D01*
X32173Y118624D01*
X34996Y118624D01*
X37818Y117112D01*
X43462Y117112D02*
X46284Y118624D01*
X46284Y111065D01*
X42051Y111065D02*
X50518Y111065D01*
X69427Y111760D02*
X69427Y166793D01*
X5927Y111760D02*
X5927Y166793D01*
X37677Y158327D02*
X36017Y158254D01*
X34369Y158038D01*
X32746Y157678D01*
X31162Y157178D01*
X29626Y156542D01*
X28152Y155775D01*
X26750Y154882D01*
X25432Y153870D01*
X24207Y152747D01*
X23084Y151522D01*
X22072Y150204D01*
X21179Y148802D01*
X20412Y147328D01*
X19776Y145792D01*
X19276Y144207D01*
X18916Y142585D01*
X18700Y140937D01*
X18627Y139277D01*
X18700Y137617D01*
X18916Y135969D01*
X19276Y134346D01*
X19776Y132762D01*
X20412Y131226D01*
X21179Y129752D01*
X22072Y128350D01*
X23084Y127032D01*
X24207Y125807D01*
X25432Y124684D01*
X26750Y123672D01*
X28152Y122779D01*
X29626Y122012D01*
X31162Y121376D01*
X32747Y120876D01*
X34369Y120516D01*
X36017Y120300D01*
X37677Y120227D01*
X39337Y120300D01*
X40985Y120516D01*
X42608Y120876D01*
X44192Y121376D01*
X45728Y122012D01*
X47202Y122779D01*
X48604Y123672D01*
X49922Y124684D01*
X51147Y125807D01*
X52270Y127032D01*
X53282Y128350D01*
X54175Y129752D01*
X54942Y131226D01*
X55578Y132762D01*
X56078Y134347D01*
X56438Y135969D01*
X56654Y137617D01*
X56727Y139277D01*
X56654Y140937D01*
X56438Y142585D01*
X56078Y144208D01*
X55578Y145792D01*
X54942Y147328D01*
X54175Y148802D01*
X53282Y150204D01*
X52270Y151522D01*
X51147Y152747D01*
X49922Y153870D01*
X48604Y154882D01*
X47202Y155775D01*
X45728Y156542D01*
X44192Y157178D01*
X42607Y157678D01*
X40985Y158038D01*
X39337Y158254D01*
X37677Y158327D01*
X50377Y151977D02*
X50377Y126577D01*
X50324Y128665D02*
X51201Y129807D01*
X51975Y131022D01*
X52640Y132300D01*
X53191Y133630D01*
X53624Y135004D01*
X53936Y136410D01*
X54124Y137838D01*
X54187Y139277D01*
X54124Y140716D01*
X53936Y142144D01*
X53624Y143550D01*
X53191Y144924D01*
X52640Y146254D01*
X51975Y147532D01*
X51201Y148747D01*
X50508Y149667D01*
X24977Y126577D02*
X24977Y151977D01*
X27065Y126630D02*
X28207Y125753D01*
X29422Y124979D01*
X30700Y124314D01*
X32030Y123763D01*
X33404Y123330D01*
X34810Y123018D01*
X36238Y122830D01*
X37677Y122767D01*
X39116Y122830D01*
X40544Y123018D01*
X41950Y123330D01*
X43324Y123763D01*
X44654Y124314D01*
X45932Y124979D01*
X47147Y125753D01*
X48067Y126446D01*
X27093Y107527D02*
X48260Y107527D01*
X50377Y126577D02*
X24977Y126577D01*
X65193Y122343D02*
X65377Y122351D01*
X65561Y122375D01*
X65741Y122415D01*
X65917Y122471D01*
X66088Y122542D01*
X66251Y122627D01*
X66407Y122726D01*
X66554Y122839D01*
X66690Y122963D01*
X66814Y123099D01*
X66927Y123246D01*
X67026Y123402D01*
X67111Y123565D01*
X67182Y123736D01*
X67238Y123912D01*
X67278Y124092D01*
X67302Y124276D01*
X67310Y124460D01*
X67302Y124644D01*
X67278Y124828D01*
X67238Y125008D01*
X67182Y125184D01*
X67111Y125355D01*
X67026Y125518D01*
X66927Y125674D01*
X66814Y125821D01*
X66690Y125957D01*
X66554Y126081D01*
X66407Y126194D01*
X66251Y126293D01*
X66088Y126378D01*
X65917Y126449D01*
X65741Y126505D01*
X65561Y126545D01*
X65377Y126569D01*
X65193Y126577D01*
X65009Y126569D01*
X64825Y126545D01*
X64645Y126505D01*
X64469Y126449D01*
X64298Y126378D01*
X64135Y126293D01*
X63979Y126194D01*
X63832Y126081D01*
X63696Y125957D01*
X63572Y125821D01*
X63459Y125674D01*
X63360Y125518D01*
X63275Y125355D01*
X63204Y125184D01*
X63148Y125008D01*
X63108Y124828D01*
X63084Y124644D01*
X63076Y124460D01*
X63076Y124460D01*
X63077Y124460D02*
X63069Y124644D01*
X63045Y124828D01*
X63005Y125008D01*
X62949Y125184D01*
X62878Y125355D01*
X62793Y125518D01*
X62694Y125674D01*
X62581Y125821D01*
X62457Y125957D01*
X62321Y126081D01*
X62174Y126194D01*
X62018Y126293D01*
X61855Y126378D01*
X61684Y126449D01*
X61508Y126505D01*
X61328Y126545D01*
X61144Y126569D01*
X60960Y126577D01*
X60776Y126569D01*
X60592Y126545D01*
X60412Y126505D01*
X60236Y126449D01*
X60065Y126378D01*
X59902Y126293D01*
X59746Y126194D01*
X59599Y126081D01*
X59463Y125957D01*
X59339Y125821D01*
X59226Y125674D01*
X59127Y125518D01*
X59042Y125355D01*
X58971Y125184D01*
X58915Y125008D01*
X58875Y124828D01*
X58851Y124644D01*
X58843Y124460D01*
X58851Y124276D01*
X58875Y124092D01*
X58915Y123912D01*
X58971Y123736D01*
X59042Y123565D01*
X59127Y123402D01*
X59226Y123246D01*
X59339Y123099D01*
X59463Y122963D01*
X59599Y122839D01*
X59746Y122726D01*
X59902Y122627D01*
X60065Y122542D01*
X60236Y122471D01*
X60412Y122415D01*
X60592Y122375D01*
X60776Y122351D01*
X60960Y122343D01*
X64847Y115944D02*
X64644Y116460D01*
X64397Y116956D01*
X64107Y117428D01*
X63778Y117873D01*
X63411Y118288D01*
X63009Y118669D01*
X62575Y119014D01*
X62113Y119320D01*
X61627Y119584D01*
X61119Y119805D01*
X60593Y119981D01*
X60055Y120110D01*
X59507Y120192D01*
X58954Y120226D01*
X58400Y120212D01*
X57850Y120149D01*
X57307Y120038D01*
X56776Y119881D01*
X56260Y119678D01*
X55764Y119431D01*
X55292Y119141D01*
X54847Y118812D01*
X54432Y118445D01*
X54051Y118043D01*
X53706Y117609D01*
X53400Y117147D01*
X53136Y116661D01*
X52915Y116153D01*
X52739Y115627D01*
X52610Y115089D01*
X52528Y114541D01*
X52494Y113988D01*
X52493Y113877D01*
X10160Y120227D02*
X8043Y122343D01*
X16510Y122343D01*
X22860Y113877D02*
X22836Y114430D01*
X22764Y114980D01*
X22644Y115521D01*
X22477Y116049D01*
X22265Y116561D01*
X22009Y117052D01*
X21712Y117519D01*
X21374Y117959D01*
X21000Y118367D01*
X20592Y118741D01*
X20152Y119079D01*
X19685Y119376D01*
X19194Y119632D01*
X18682Y119844D01*
X18154Y120011D01*
X17613Y120131D01*
X17063Y120203D01*
X16510Y120227D01*
X15957Y120203D01*
X15407Y120131D01*
X14866Y120011D01*
X14338Y119844D01*
X13826Y119632D01*
X13335Y119376D01*
X12868Y119079D01*
X12428Y118741D01*
X12020Y118367D01*
X11646Y117959D01*
X11308Y117519D01*
X11011Y117052D01*
X10755Y116561D01*
X10543Y116049D01*
X10506Y115944D01*
X48067Y152108D02*
X46909Y152964D01*
X45681Y153717D01*
X44392Y154360D01*
X43052Y154888D01*
X41671Y155297D01*
X40260Y155584D01*
X38829Y155747D01*
X37389Y155784D01*
X35951Y155697D01*
X34527Y155484D01*
X33126Y155147D01*
X31760Y154690D01*
X30440Y154116D01*
X29174Y153429D01*
X27973Y152634D01*
X27287Y152108D01*
X24977Y151977D02*
X50377Y151977D01*
X52493Y164677D02*
X52517Y164124D01*
X52589Y163574D01*
X52709Y163033D01*
X52876Y162505D01*
X53088Y161993D01*
X53344Y161502D01*
X53641Y161035D01*
X53979Y160595D01*
X54353Y160187D01*
X54761Y159813D01*
X55201Y159475D01*
X55668Y159178D01*
X56159Y158922D01*
X56671Y158710D01*
X57199Y158543D01*
X57740Y158423D01*
X58290Y158351D01*
X58843Y158327D01*
X59396Y158351D01*
X59946Y158423D01*
X60487Y158543D01*
X61015Y158710D01*
X61527Y158922D01*
X62018Y159178D01*
X62485Y159475D01*
X62925Y159813D01*
X63333Y160187D01*
X63707Y160595D01*
X64045Y161035D01*
X64342Y161502D01*
X64598Y161993D01*
X64810Y162505D01*
X64847Y162610D01*
X63077Y151977D02*
X58843Y154093D01*
X65193Y151977D02*
X63077Y151977D01*
X65193Y156210D02*
X65193Y151977D01*
X67310Y154093D02*
X63077Y154093D01*
X37677Y143510D02*
X37308Y143494D01*
X36942Y143446D01*
X36581Y143366D01*
X36229Y143255D01*
X35888Y143114D01*
X35560Y142943D01*
X35249Y142745D01*
X34956Y142520D01*
X34684Y142270D01*
X34434Y141998D01*
X34209Y141705D01*
X34011Y141394D01*
X33840Y141066D01*
X33699Y140725D01*
X33588Y140373D01*
X33508Y140012D01*
X33460Y139646D01*
X33444Y139277D01*
X33460Y138908D01*
X33508Y138542D01*
X33588Y138181D01*
X33699Y137829D01*
X33840Y137488D01*
X34011Y137160D01*
X34209Y136849D01*
X34434Y136556D01*
X34684Y136284D01*
X34956Y136034D01*
X35249Y135809D01*
X35560Y135611D01*
X35888Y135440D01*
X36229Y135299D01*
X36581Y135188D01*
X36942Y135108D01*
X37308Y135060D01*
X37677Y135044D01*
X38046Y135060D01*
X38412Y135108D01*
X38773Y135188D01*
X39125Y135299D01*
X39466Y135440D01*
X39794Y135611D01*
X40105Y135809D01*
X40398Y136034D01*
X40670Y136284D01*
X40920Y136556D01*
X41145Y136849D01*
X41343Y137160D01*
X41514Y137488D01*
X41655Y137829D01*
X41766Y138181D01*
X41846Y138542D01*
X41894Y138908D01*
X41910Y139277D01*
X41894Y139646D01*
X41846Y140012D01*
X41766Y140373D01*
X41655Y140725D01*
X41514Y141066D01*
X41343Y141394D01*
X41145Y141705D01*
X40920Y141998D01*
X40670Y142270D01*
X40398Y142520D01*
X40105Y142745D01*
X39794Y142943D01*
X39466Y143114D01*
X39125Y143255D01*
X38773Y143366D01*
X38412Y143446D01*
X38046Y143494D01*
X37677Y143510D01*
X10471Y162715D02*
X10665Y162196D01*
X10903Y161696D01*
X11184Y161219D01*
X11506Y160768D01*
X11866Y160346D01*
X12261Y159958D01*
X12688Y159606D01*
X13145Y159292D01*
X13627Y159019D01*
X14131Y158789D01*
X14653Y158604D01*
X15190Y158466D01*
X15736Y158374D01*
X16288Y158331D01*
X16842Y158336D01*
X17394Y158389D01*
X17938Y158490D01*
X18472Y158638D01*
X18991Y158832D01*
X19491Y159070D01*
X19968Y159351D01*
X20419Y159673D01*
X20841Y160033D01*
X21229Y160428D01*
X21581Y160855D01*
X21895Y161312D01*
X22168Y161794D01*
X22398Y162298D01*
X22583Y162820D01*
X22721Y163357D01*
X22813Y163903D01*
X22856Y164455D01*
X22860Y164677D01*
X16510Y151977D02*
X16510Y156210D01*
X12276Y154093D02*
X12284Y153909D01*
X12308Y153725D01*
X12348Y153545D01*
X12404Y153369D01*
X12475Y153198D01*
X12560Y153035D01*
X12659Y152879D01*
X12772Y152732D01*
X12896Y152596D01*
X13032Y152472D01*
X13179Y152359D01*
X13335Y152260D01*
X13498Y152175D01*
X13669Y152104D01*
X13845Y152048D01*
X14025Y152008D01*
X14209Y151984D01*
X14393Y151976D01*
X14393Y151976D01*
X12277Y154093D02*
X12269Y154277D01*
X12245Y154461D01*
X12205Y154641D01*
X12149Y154817D01*
X12078Y154988D01*
X11993Y155151D01*
X11894Y155307D01*
X11781Y155454D01*
X11657Y155590D01*
X11521Y155714D01*
X11374Y155827D01*
X11218Y155926D01*
X11055Y156011D01*
X10884Y156082D01*
X10708Y156138D01*
X10528Y156178D01*
X10344Y156202D01*
X10160Y156210D01*
X9976Y156202D01*
X9792Y156178D01*
X9612Y156138D01*
X9436Y156082D01*
X9265Y156011D01*
X9102Y155926D01*
X8946Y155827D01*
X8799Y155714D01*
X8663Y155590D01*
X8539Y155454D01*
X8426Y155307D01*
X8327Y155151D01*
X8242Y154988D01*
X8171Y154817D01*
X8115Y154641D01*
X8075Y154461D01*
X8051Y154277D01*
X8043Y154093D01*
X8051Y153909D01*
X8075Y153725D01*
X8115Y153545D01*
X8171Y153369D01*
X8242Y153198D01*
X8327Y153035D01*
X8426Y152879D01*
X8539Y152732D01*
X8663Y152596D01*
X8799Y152472D01*
X8946Y152359D01*
X9102Y152260D01*
X9265Y152175D01*
X9436Y152104D01*
X9612Y152048D01*
X9792Y152008D01*
X9976Y151984D01*
X10160Y151976D01*
X14393Y151977D02*
X16510Y151977D01*
X25030Y149889D02*
X24153Y148747D01*
X23379Y147532D01*
X22714Y146254D01*
X22163Y144924D01*
X21730Y143550D01*
X21418Y142144D01*
X21230Y140716D01*
X21167Y139277D01*
X21230Y137838D01*
X21418Y136410D01*
X21730Y135004D01*
X22163Y133630D01*
X22714Y132300D01*
X23379Y131022D01*
X24153Y129807D01*
X24846Y128887D01*
X27093Y171027D02*
X48260Y171027D01*
X160679Y127680D02*
X160679Y138415D01*
X170086Y138415D01*
X174790Y136268D01*
X174790Y135195D01*
X170086Y133048D01*
X160679Y133048D01*
X163030Y133048D02*
X174790Y127680D01*
X184197Y136268D02*
X188901Y138415D01*
X188901Y127680D01*
X181845Y127680D02*
X195956Y127680D01*
X226060Y144780D02*
X124460Y144780D01*
X124460Y119380D02*
X226060Y119380D01*
X226060Y144780D01*
X124460Y144780D02*
X124460Y119380D01*
X643968Y260150D02*
X637994Y270150D01*
X643968Y270150D02*
X637994Y260150D01*
X635008Y262150D02*
X633016Y260150D01*
X631025Y260150D01*
X629034Y262150D01*
X629034Y263150D01*
X635008Y270150D01*
X629034Y270150D01*
X629034Y269150D01*
X528540Y183470D02*
X746540Y183470D01*
X746540Y238170D02*
X528540Y238170D01*
X746540Y183470D02*
X746540Y238170D01*
X528540Y238170D02*
X528540Y183470D01*
X656449Y397964D02*
X653627Y399475D01*
X650804Y399475D01*
X647982Y397964D01*
X647982Y391916D01*
X636693Y391916D02*
X640927Y391916D01*
X643749Y393428D01*
X643749Y396452D01*
X643749Y397964D01*
X640927Y399475D01*
X638104Y399475D01*
X635282Y397964D01*
X635282Y396452D01*
X638104Y394940D01*
X640927Y394940D01*
X643749Y396452D01*
X607060Y388620D02*
X657860Y388620D01*
X638810Y363220D02*
X657860Y363220D01*
X657860Y388620D01*
X607060Y363220D02*
X630343Y363220D01*
X634577Y363220D02*
X634577Y371687D01*
X636693Y365337D02*
X634577Y363220D01*
X607060Y363220D02*
X607060Y388620D01*
X559929Y311604D02*
X557107Y313115D01*
X554284Y313115D01*
X551462Y311604D01*
X551462Y305556D01*
X542996Y313115D02*
X542996Y309336D01*
X538762Y307068D01*
X538762Y305556D01*
X547229Y305556D01*
X547229Y307068D01*
X586740Y276860D02*
X586740Y302260D01*
X510540Y276860D02*
X510540Y302260D01*
X510540Y276860D02*
X561340Y276860D01*
X567690Y276860D02*
X586740Y276860D01*
X563457Y276860D02*
X563457Y285327D01*
X565573Y278977D02*
X563457Y276860D01*
X510540Y302260D02*
X586740Y302260D01*
X341252Y416748D02*
X351987Y416748D01*
X351987Y407341D01*
X349840Y402637D01*
X348766Y402637D01*
X346619Y407341D01*
X346619Y416748D01*
X346619Y414396D02*
X341252Y402637D01*
X349840Y395581D02*
X351987Y390878D01*
X351987Y386174D01*
X349840Y381470D01*
X348766Y381470D01*
X341252Y395581D01*
X341252Y381470D01*
X342325Y381470D01*
X332740Y449580D02*
X332740Y347980D01*
X358140Y347980D02*
X358140Y449580D01*
X332740Y449580D01*
X332740Y347980D02*
X358140Y347980D01*
X468489Y484324D02*
X465667Y485835D01*
X462844Y485835D01*
X460022Y484324D01*
X460022Y478276D01*
X454378Y479032D02*
X452967Y478276D01*
X450144Y478276D01*
X447322Y479788D01*
X447322Y481300D01*
X448733Y482056D01*
X447322Y482812D01*
X447322Y484324D01*
X450144Y485835D01*
X452967Y485835D01*
X454378Y485080D01*
X452967Y482056D02*
X448733Y482056D01*
X419100Y474980D02*
X469900Y474980D01*
X450850Y449580D02*
X469900Y449580D01*
X469900Y474980D01*
X419100Y449580D02*
X442383Y449580D01*
X446617Y449580D02*
X446617Y458047D01*
X448733Y451697D02*
X446617Y449580D01*
X419100Y449580D02*
X419100Y474980D01*
X245251Y484384D02*
X245251Y476825D01*
X253718Y476825D01*
X266418Y476825D02*
X257951Y476825D01*
X257951Y480604D01*
X257951Y484384D01*
X266418Y484384D01*
X257951Y480604D02*
X263596Y480604D01*
X270651Y476825D02*
X276296Y476825D01*
X279118Y478336D01*
X279118Y482872D01*
X276296Y484384D01*
X270651Y484384D01*
X272062Y484384D02*
X272062Y476825D01*
X284762Y482872D02*
X287584Y484384D01*
X287584Y476825D01*
X283351Y476825D02*
X291818Y476825D01*
X226758Y436342D02*
X229171Y432959D01*
X231869Y429800D01*
X234833Y426888D01*
X238039Y424245D01*
X241463Y421892D01*
X245079Y419846D01*
X248859Y418123D01*
X252776Y416736D01*
X256798Y415696D01*
X260896Y415010D01*
X265038Y414684D01*
X269192Y414720D01*
X273328Y415118D01*
X277413Y415876D01*
X281417Y416986D01*
X285309Y418441D01*
X289059Y420230D01*
X292638Y422338D01*
X296021Y424751D01*
X299180Y427449D01*
X302092Y430413D01*
X304735Y433619D01*
X307088Y437043D01*
X309134Y440659D01*
X310857Y444439D01*
X312244Y448356D01*
X313284Y452378D01*
X313970Y456476D01*
X314296Y460618D01*
X314260Y464772D01*
X313862Y468908D01*
X313104Y472993D01*
X311994Y476997D01*
X310539Y480889D01*
X308750Y484639D01*
X306642Y488218D01*
X304229Y491601D01*
X301531Y494760D01*
X298567Y497672D01*
X295361Y500315D01*
X291937Y502668D01*
X288321Y504714D01*
X284541Y506437D01*
X280624Y507824D01*
X276602Y508864D01*
X272504Y509550D01*
X268362Y509876D01*
X264208Y509840D01*
X260072Y509442D01*
X255987Y508684D01*
X251983Y507574D01*
X248091Y506119D01*
X244341Y504330D01*
X240762Y502222D01*
X237379Y499809D01*
X234220Y497111D01*
X231308Y494147D01*
X228665Y490941D01*
X226758Y488218D01*
X306917Y462280D02*
X306764Y465785D01*
X306306Y469264D01*
X305546Y472689D01*
X304491Y476035D01*
X303149Y479276D01*
X301529Y482388D01*
X299644Y485347D01*
X297508Y488131D01*
X295137Y490717D01*
X292551Y493088D01*
X289767Y495224D01*
X286808Y497109D01*
X283696Y498729D01*
X280455Y500071D01*
X277109Y501126D01*
X273684Y501886D01*
X270205Y502344D01*
X266700Y502497D01*
X263195Y502344D01*
X259716Y501886D01*
X256291Y501126D01*
X252945Y500071D01*
X249704Y498729D01*
X246592Y497109D01*
X243633Y495224D01*
X240849Y493088D01*
X238263Y490717D01*
X235892Y488131D01*
X233756Y485347D01*
X231871Y482388D01*
X230251Y479276D01*
X228909Y476035D01*
X227854Y472689D01*
X227094Y469264D01*
X226636Y465785D01*
X226483Y462280D01*
X226636Y458775D01*
X227094Y455296D01*
X227854Y451871D01*
X228909Y448525D01*
X230251Y445284D01*
X231871Y442172D01*
X233756Y439213D01*
X235892Y436429D01*
X238263Y433843D01*
X240849Y431472D01*
X243633Y429336D01*
X246592Y427451D01*
X249704Y425831D01*
X252945Y424489D01*
X256291Y423434D01*
X259716Y422674D01*
X263195Y422216D01*
X266700Y422063D01*
X270205Y422216D01*
X273684Y422674D01*
X277109Y423434D01*
X280455Y424489D01*
X283696Y425831D01*
X286808Y427451D01*
X289767Y429336D01*
X292551Y431472D01*
X295137Y433843D01*
X297508Y436429D01*
X299644Y439213D01*
X301529Y442172D01*
X303149Y445284D01*
X304491Y448525D01*
X305546Y451871D01*
X306306Y455296D01*
X306764Y458775D01*
X306917Y462280D01*
X306917Y462280D01*
X277283Y443230D02*
X277283Y449580D01*
X281517Y449580D02*
X281509Y449764D01*
X281485Y449948D01*
X281445Y450128D01*
X281389Y450304D01*
X281318Y450475D01*
X281233Y450638D01*
X281134Y450794D01*
X281021Y450941D01*
X280897Y451077D01*
X280761Y451201D01*
X280614Y451314D01*
X280458Y451413D01*
X280295Y451498D01*
X280124Y451569D01*
X279948Y451625D01*
X279768Y451665D01*
X279584Y451689D01*
X279400Y451697D01*
X279216Y451689D01*
X279032Y451665D01*
X278852Y451625D01*
X278676Y451569D01*
X278505Y451498D01*
X278342Y451413D01*
X278186Y451314D01*
X278039Y451201D01*
X277903Y451077D01*
X277779Y450941D01*
X277666Y450794D01*
X277567Y450638D01*
X277482Y450475D01*
X277411Y450304D01*
X277355Y450128D01*
X277315Y449948D01*
X277291Y449764D01*
X277283Y449580D01*
X277283Y447463D02*
X281517Y447463D01*
X226483Y487680D02*
X226483Y436880D01*
X251883Y445347D02*
X251891Y445163D01*
X251915Y444979D01*
X251955Y444799D01*
X252011Y444623D01*
X252082Y444452D01*
X252167Y444289D01*
X252266Y444133D01*
X252379Y443986D01*
X252503Y443850D01*
X252639Y443726D01*
X252786Y443613D01*
X252942Y443514D01*
X253105Y443429D01*
X253276Y443358D01*
X253452Y443302D01*
X253632Y443262D01*
X253816Y443238D01*
X254000Y443230D01*
X254184Y443238D01*
X254368Y443262D01*
X254548Y443302D01*
X254724Y443358D01*
X254895Y443429D01*
X255058Y443514D01*
X255214Y443613D01*
X255361Y443726D01*
X255497Y443850D01*
X255621Y443986D01*
X255734Y444133D01*
X255833Y444289D01*
X255918Y444452D01*
X255989Y444623D01*
X256045Y444799D01*
X256085Y444979D01*
X256109Y445163D01*
X256117Y445347D01*
X256117Y445347D01*
X256117Y449580D02*
X256109Y449764D01*
X256085Y449948D01*
X256045Y450128D01*
X255989Y450304D01*
X255918Y450475D01*
X255833Y450638D01*
X255734Y450794D01*
X255621Y450941D01*
X255497Y451077D01*
X255361Y451201D01*
X255214Y451314D01*
X255058Y451413D01*
X254895Y451498D01*
X254724Y451569D01*
X254548Y451625D01*
X254368Y451665D01*
X254184Y451689D01*
X254000Y451697D01*
X253816Y451689D01*
X253632Y451665D01*
X253452Y451625D01*
X253276Y451569D01*
X253105Y451498D01*
X252942Y451413D01*
X252786Y451314D01*
X252639Y451201D01*
X252503Y451077D01*
X252379Y450941D01*
X252266Y450794D01*
X252167Y450638D01*
X252082Y450475D01*
X252011Y450304D01*
X251955Y450128D01*
X251915Y449948D01*
X251891Y449764D01*
X251883Y449580D01*
X251883Y445347D02*
X251883Y449580D01*
X281517Y443230D02*
X281517Y449580D01*
X587496Y390031D02*
X595055Y390031D01*
X595055Y398498D01*
X595055Y411198D02*
X595055Y402731D01*
X591276Y402731D01*
X587496Y402731D01*
X587496Y411198D01*
X591276Y402731D02*
X591276Y408376D01*
X595055Y415431D02*
X595055Y421076D01*
X593544Y423898D01*
X589008Y423898D01*
X587496Y421076D01*
X587496Y415431D01*
X587496Y416842D02*
X595055Y416842D01*
X589008Y428131D02*
X587496Y430953D01*
X587496Y433776D01*
X589008Y436598D01*
X589764Y436598D01*
X595055Y428131D01*
X595055Y436598D01*
X594300Y436598D01*
X495998Y385542D02*
X498411Y382159D01*
X501109Y379000D01*
X504073Y376088D01*
X507279Y373445D01*
X510703Y371092D01*
X514319Y369046D01*
X518099Y367323D01*
X522016Y365936D01*
X526038Y364896D01*
X530136Y364210D01*
X534278Y363884D01*
X538432Y363920D01*
X542568Y364318D01*
X546653Y365076D01*
X550657Y366186D01*
X554549Y367641D01*
X558299Y369430D01*
X561878Y371538D01*
X565261Y373951D01*
X568420Y376649D01*
X571332Y379613D01*
X573975Y382819D01*
X576328Y386243D01*
X578374Y389859D01*
X580097Y393639D01*
X581484Y397556D01*
X582524Y401578D01*
X583210Y405676D01*
X583536Y409818D01*
X583500Y413972D01*
X583102Y418108D01*
X582344Y422193D01*
X581234Y426197D01*
X579779Y430089D01*
X577990Y433839D01*
X575882Y437418D01*
X573469Y440801D01*
X570771Y443960D01*
X567807Y446872D01*
X564601Y449515D01*
X561177Y451868D01*
X557561Y453914D01*
X553781Y455637D01*
X549864Y457024D01*
X545842Y458064D01*
X541744Y458750D01*
X537602Y459076D01*
X533448Y459040D01*
X529312Y458642D01*
X525227Y457884D01*
X521223Y456774D01*
X517331Y455319D01*
X513581Y453530D01*
X510002Y451422D01*
X506619Y449009D01*
X503460Y446311D01*
X500548Y443347D01*
X497905Y440141D01*
X495998Y437418D01*
X576157Y411480D02*
X576004Y414985D01*
X575546Y418464D01*
X574786Y421889D01*
X573731Y425235D01*
X572389Y428476D01*
X570769Y431588D01*
X568884Y434547D01*
X566748Y437331D01*
X564377Y439917D01*
X561791Y442288D01*
X559007Y444424D01*
X556048Y446309D01*
X552936Y447929D01*
X549695Y449271D01*
X546349Y450326D01*
X542924Y451086D01*
X539445Y451544D01*
X535940Y451697D01*
X532435Y451544D01*
X528956Y451086D01*
X525531Y450326D01*
X522185Y449271D01*
X518944Y447929D01*
X515832Y446309D01*
X512873Y444424D01*
X510089Y442288D01*
X507503Y439917D01*
X505132Y437331D01*
X502996Y434547D01*
X501111Y431588D01*
X499491Y428476D01*
X498149Y425235D01*
X497094Y421889D01*
X496334Y418464D01*
X495876Y414985D01*
X495723Y411480D01*
X495876Y407975D01*
X496334Y404496D01*
X497094Y401071D01*
X498149Y397725D01*
X499491Y394484D01*
X501111Y391372D01*
X502996Y388413D01*
X505132Y385629D01*
X507503Y383043D01*
X510089Y380672D01*
X512873Y378536D01*
X515832Y376651D01*
X518944Y375031D01*
X522185Y373689D01*
X525531Y372634D01*
X528956Y371874D01*
X532435Y371416D01*
X535940Y371263D01*
X539445Y371416D01*
X542924Y371874D01*
X546349Y372634D01*
X549695Y373689D01*
X552936Y375031D01*
X556048Y376651D01*
X559007Y378536D01*
X561791Y380672D01*
X564377Y383043D01*
X566748Y385629D01*
X568884Y388413D01*
X570769Y391372D01*
X572389Y394484D01*
X573731Y397725D01*
X574786Y401071D01*
X575546Y404496D01*
X576004Y407975D01*
X576157Y411480D01*
X576157Y411480D01*
X546523Y392430D02*
X546523Y398780D01*
X550757Y398780D02*
X550749Y398964D01*
X550725Y399148D01*
X550685Y399328D01*
X550629Y399504D01*
X550558Y399675D01*
X550473Y399838D01*
X550374Y399994D01*
X550261Y400141D01*
X550137Y400277D01*
X550001Y400401D01*
X549854Y400514D01*
X549698Y400613D01*
X549535Y400698D01*
X549364Y400769D01*
X549188Y400825D01*
X549008Y400865D01*
X548824Y400889D01*
X548640Y400897D01*
X548456Y400889D01*
X548272Y400865D01*
X548092Y400825D01*
X547916Y400769D01*
X547745Y400698D01*
X547582Y400613D01*
X547426Y400514D01*
X547279Y400401D01*
X547143Y400277D01*
X547019Y400141D01*
X546906Y399994D01*
X546807Y399838D01*
X546722Y399675D01*
X546651Y399504D01*
X546595Y399328D01*
X546555Y399148D01*
X546531Y398964D01*
X546523Y398780D01*
X546523Y396663D02*
X550757Y396663D01*
X495723Y436880D02*
X495723Y386080D01*
X521123Y394547D02*
X521131Y394363D01*
X521155Y394179D01*
X521195Y393999D01*
X521251Y393823D01*
X521322Y393652D01*
X521407Y393489D01*
X521506Y393333D01*
X521619Y393186D01*
X521743Y393050D01*
X521879Y392926D01*
X522026Y392813D01*
X522182Y392714D01*
X522345Y392629D01*
X522516Y392558D01*
X522692Y392502D01*
X522872Y392462D01*
X523056Y392438D01*
X523240Y392430D01*
X523424Y392438D01*
X523608Y392462D01*
X523788Y392502D01*
X523964Y392558D01*
X524135Y392629D01*
X524298Y392714D01*
X524454Y392813D01*
X524601Y392926D01*
X524737Y393050D01*
X524861Y393186D01*
X524974Y393333D01*
X525073Y393489D01*
X525158Y393652D01*
X525229Y393823D01*
X525285Y393999D01*
X525325Y394179D01*
X525349Y394363D01*
X525357Y394547D01*
X525357Y394547D01*
X525357Y398780D02*
X525349Y398964D01*
X525325Y399148D01*
X525285Y399328D01*
X525229Y399504D01*
X525158Y399675D01*
X525073Y399838D01*
X524974Y399994D01*
X524861Y400141D01*
X524737Y400277D01*
X524601Y400401D01*
X524454Y400514D01*
X524298Y400613D01*
X524135Y400698D01*
X523964Y400769D01*
X523788Y400825D01*
X523608Y400865D01*
X523424Y400889D01*
X523240Y400897D01*
X523056Y400889D01*
X522872Y400865D01*
X522692Y400825D01*
X522516Y400769D01*
X522345Y400698D01*
X522182Y400613D01*
X522026Y400514D01*
X521879Y400401D01*
X521743Y400277D01*
X521619Y400141D01*
X521506Y399994D01*
X521407Y399838D01*
X521322Y399675D01*
X521251Y399504D01*
X521195Y399328D01*
X521155Y399148D01*
X521131Y398964D01*
X521123Y398780D01*
X521123Y394547D02*
X521123Y398780D01*
X550757Y392430D02*
X550757Y398780D01*
X417376Y99342D02*
X415865Y102164D01*
X415865Y104987D01*
X417376Y107809D01*
X421912Y107809D01*
X423424Y104987D01*
X423424Y102164D01*
X421912Y99342D01*
X418888Y86642D02*
X418888Y95109D01*
X423424Y88053D01*
X415865Y88053D01*
X415865Y89464D02*
X415865Y86642D01*
X423333Y121920D02*
X423269Y123396D01*
X423076Y124860D01*
X422756Y126303D01*
X422312Y127712D01*
X421747Y129076D01*
X421065Y130387D01*
X420271Y131633D01*
X419372Y132805D01*
X418374Y133894D01*
X417285Y134892D01*
X416113Y135791D01*
X414867Y136585D01*
X413556Y137267D01*
X412192Y137832D01*
X410783Y138276D01*
X409340Y138596D01*
X407876Y138789D01*
X406400Y138853D01*
X404924Y138789D01*
X403460Y138596D01*
X402017Y138276D01*
X400608Y137832D01*
X399244Y137267D01*
X397933Y136585D01*
X396687Y135791D01*
X395515Y134892D01*
X394426Y133894D01*
X393428Y132805D01*
X392529Y131633D01*
X391735Y130387D01*
X391053Y129076D01*
X390488Y127712D01*
X390044Y126303D01*
X389724Y124860D01*
X389531Y123396D01*
X389467Y121920D01*
X389467Y71120D02*
X389531Y69644D01*
X389724Y68180D01*
X390044Y66737D01*
X390488Y65328D01*
X391053Y63964D01*
X391735Y62653D01*
X392529Y61407D01*
X393428Y60235D01*
X394426Y59146D01*
X395515Y58148D01*
X396687Y57249D01*
X397933Y56455D01*
X399244Y55773D01*
X400608Y55208D01*
X402017Y54764D01*
X403460Y54444D01*
X404924Y54251D01*
X406400Y54187D01*
X407876Y54251D01*
X409340Y54444D01*
X410783Y54764D01*
X412192Y55208D01*
X413556Y55773D01*
X414867Y56455D01*
X416113Y57249D01*
X417285Y58148D01*
X418374Y59146D01*
X419372Y60235D01*
X420271Y61407D01*
X421065Y62653D01*
X421747Y63964D01*
X422312Y65328D01*
X422756Y66737D01*
X423076Y68180D01*
X423269Y69644D01*
X423333Y71120D01*
X389467Y121920D02*
X389467Y71120D01*
X423333Y121920D02*
X423333Y71120D01*
X406400Y101600D02*
X406400Y105410D01*
X398780Y101600D02*
X414020Y101600D01*
X398780Y92710D02*
X414020Y92710D01*
X414020Y91440D02*
X398780Y91440D01*
X406400Y91440D02*
X406400Y87630D01*
X398780Y99060D02*
X414020Y99060D01*
X414020Y100330D02*
X398780Y100330D01*
X414020Y93980D02*
X398780Y93980D01*
X288016Y214900D02*
X288016Y206900D01*
X290007Y204900D01*
X291998Y204900D01*
X293989Y206900D01*
X293989Y214900D01*
X297971Y212900D02*
X299962Y214900D01*
X299962Y204900D01*
X296976Y204900D02*
X302949Y204900D01*
X83185Y183435D02*
X480695Y183435D01*
X480695Y238205D02*
X83185Y238205D01*
X83820Y237650D02*
X83820Y182880D01*
X480060Y182880D02*
X480060Y238760D01*
X683928Y421640D02*
X683928Y375920D01*
G75*
D01*
G03X695960Y363888I12032J0*
G01*
G75*
D01*
G03X707992Y375920I0J12032*
G01*
X707992Y421640D01*
G74*
D01*
G03X695960Y433672I12032J0*
G01*
G75*
D01*
G03X683928Y421640I0J-12032*
G01*
X647328Y281940D02*
G75*
D01*
G03X657860Y271408I10532J0*
G01*
X695960Y271408D01*
G75*
D01*
G03X706492Y281940I0J10532*
G01*
G74*
D01*
G03X695960Y292472I10532J0*
G01*
X657860Y292472D01*
G75*
D01*
G03X647328Y281940I0J-10532*
G01*
X211488Y340360D02*
X211488Y297180D01*
G75*
D01*
G03X223520Y285148I12032J0*
G01*
G75*
D01*
G03X235552Y297180I0J12032*
G01*
X235552Y340360D01*
G74*
D01*
G03X223520Y352392I12032J0*
G01*
G75*
D01*
G03X211488Y340360I0J-12032*
G01*
X264828Y340360D02*
X264828Y297180D01*
G75*
D01*
G03X276860Y285148I12032J0*
G01*
G75*
D01*
G03X288892Y297180I0J12032*
G01*
X288892Y340360D01*
G74*
D01*
G03X276860Y352392I12032J0*
G01*
G75*
D01*
G03X264828Y340360I0J-12032*
G01*
X661529Y118564D02*
X658707Y120075D01*
X655884Y120075D01*
X653062Y118564D01*
X653062Y112516D01*
X640362Y112516D02*
X648829Y112516D01*
X648829Y115540D01*
X643184Y115540D01*
X640362Y117052D01*
X640362Y118564D01*
X643184Y120075D01*
X648829Y120075D01*
X612140Y109220D02*
X662940Y109220D01*
X643890Y83820D02*
X662940Y83820D01*
X662940Y109220D01*
X612140Y83820D02*
X635423Y83820D01*
X639657Y83820D02*
X639657Y92287D01*
X641773Y85937D02*
X639657Y83820D01*
X612140Y83820D02*
X612140Y109220D01*
X543188Y124460D02*
G75*
D01*
G03X553720Y113928I10532J0*
G01*
X637540Y113928D01*
G75*
D01*
G03X648072Y124460I0J10532*
G01*
G74*
D01*
G03X637540Y134992I10532J0*
G01*
X553720Y134992D01*
G75*
D01*
G03X543188Y124460I0J-10532*
G01*
G54D12*
X-2540Y-2540D02*
X-2540Y48768D01*
X-2540Y-2540D02*
X74168Y-2540D01*
X764540Y-2540D02*
X687832Y-2540D01*
X764540Y-2540D02*
X764540Y48768D01*
X764540Y510540D02*
X764540Y459232D01*
X764540Y510540D02*
X687832Y510540D01*
X-2540Y510540D02*
X74168Y510540D01*
X-2540Y510540D02*
X-2540Y459232D01*
X-52540Y-2540D02*
X-152540Y-2540D01*
X-102540Y-52540D02*
X-102540Y47460D01*
X-140040Y-2540D02*
G75*
D01*
G02X-140040Y-2540I37500J0*
G01*
X814540Y-2540D02*
X914540Y-2540D01*
X864540Y-52540D02*
X864540Y47460D01*
X827040Y-2540D02*
G75*
D01*
G02X827040Y-2540I37500J0*
G01*
X852040Y-2540D02*
G75*
D01*
G02X852040Y-2540I12500J0*
G01*
X-52540Y510540D02*
X-152540Y510540D01*
X-102540Y460540D02*
X-102540Y560540D01*
X-140040Y510540D02*
G75*
D01*
G02X-140040Y510540I37500J0*
G01*
X-127540Y510540D02*
G75*
D01*
G02X-127540Y510540I25000J0*
G01*
X-115040Y510540D02*
G75*
D01*
G02X-115040Y510540I12500J0*
G01*
G54D13*
X739100Y256540D03*
X96560Y172720D03*
G54D14*
X736520Y228600D03*
G54D15*
X97640Y195580D03*

M02*
