G04 Generated by Ultiboard 14.0 *
%FSLAX34Y34*%
%MOMM*%

%ADD10C,0.0001*%
%ADD11C,0.1270*%
%ADD12C,2.0000*%
%ADD13R,1.0051X1.0051*%
%ADD14C,0.9949*%
%ADD15R,2.0000X2.0000*%
%ADD16C,1.7000*%
%ADD17R,1.6000X1.6000*%
%ADD18R,1.7000X1.7000*%
%ADD19C,6.0000*%


G04 ColorRGB 00FF00 for the following layer *
%LNCopper Top*%
%LPD*%
G54D10*
G54D11*
X-2540Y-2540D02*
X-2540Y48768D01*
X-2540Y-2540D02*
X74168Y-2540D01*
X764540Y-2540D02*
X687832Y-2540D01*
X764540Y-2540D02*
X764540Y48768D01*
X764540Y510540D02*
X764540Y459232D01*
X764540Y510540D02*
X687832Y510540D01*
X-2540Y510540D02*
X74168Y510540D01*
X-2540Y510540D02*
X-2540Y459232D01*
X-52540Y-2540D02*
X-152540Y-2540D01*
X-102540Y-52540D02*
X-102540Y47460D01*
X-140040Y-2540D02*
G75*
D01*
G02X-140040Y-2540I37500J0*
G01*
X814540Y-2540D02*
X914540Y-2540D01*
X864540Y-52540D02*
X864540Y47460D01*
X827040Y-2540D02*
G75*
D01*
G02X827040Y-2540I37500J0*
G01*
X852040Y-2540D02*
G75*
D01*
G02X852040Y-2540I12500J0*
G01*
X-52540Y510540D02*
X-152540Y510540D01*
X-102540Y460540D02*
X-102540Y560540D01*
X-140040Y510540D02*
G75*
D01*
G02X-140040Y510540I37500J0*
G01*
X-127540Y510540D02*
G75*
D01*
G02X-127540Y510540I25000J0*
G01*
X-115040Y510540D02*
G75*
D01*
G02X-115040Y510540I12500J0*
G01*
G54D12*
X137160Y76200D03*
X162560Y76200D03*
X213360Y76200D03*
X187960Y76200D03*
X238760Y76200D03*
X294640Y66040D03*
X345440Y66040D03*
X345440Y121920D03*
X296757Y121920D03*
X421640Y299720D03*
X396240Y299720D03*
X345440Y299720D03*
X370840Y299720D03*
X320040Y299720D03*
X548640Y340360D03*
X421640Y340360D03*
X421640Y391160D03*
X396240Y391160D03*
X619760Y320040D03*
X15240Y171873D03*
X60113Y171873D03*
X15240Y106680D03*
X60113Y106680D03*
X238760Y132080D03*
X111760Y132080D03*
X548640Y172720D03*
X726440Y172720D03*
X675640Y248920D03*
X701040Y248920D03*
X650240Y248920D03*
X599440Y248920D03*
X624840Y248920D03*
X574040Y248920D03*
X548640Y248920D03*
X574040Y172720D03*
X650240Y172720D03*
X675640Y172720D03*
X701040Y172720D03*
X599440Y172720D03*
X624840Y172720D03*
X619760Y375920D03*
X548640Y289560D03*
X523240Y289560D03*
X345440Y462280D03*
X345440Y335280D03*
X431800Y462280D03*
X279400Y462280D03*
X254000Y462280D03*
X548640Y411480D03*
X523240Y411480D03*
X406400Y71120D03*
X406400Y121920D03*
X142240Y172720D03*
X167640Y172720D03*
X193040Y172720D03*
X243840Y172720D03*
X218440Y172720D03*
X269240Y172720D03*
X320040Y172720D03*
X294640Y172720D03*
X345440Y172720D03*
X370840Y172720D03*
X396240Y172720D03*
X421640Y172720D03*
X447040Y172720D03*
X116840Y248920D03*
X142240Y248920D03*
X167640Y248920D03*
X193040Y248920D03*
X218440Y248920D03*
X243840Y248920D03*
X269240Y248920D03*
X294640Y248920D03*
X320040Y248920D03*
X345440Y248920D03*
X370840Y248920D03*
X396240Y248920D03*
X421640Y248920D03*
X447040Y248920D03*
X695960Y421640D03*
X695960Y375920D03*
X276860Y340360D03*
X276860Y297180D03*
X624840Y96520D03*
G54D13*
X111760Y76200D03*
X447040Y299720D03*
X447040Y391160D03*
X645160Y320040D03*
X645160Y375920D03*
X574040Y289560D03*
X457200Y462280D03*
X650240Y96520D03*
G54D14*
X106735Y71175D02*
X116785Y71175D01*
X116785Y81225D01*
X106735Y81225D01*
X106735Y71175D01*D02*
X442015Y294695D02*
X452065Y294695D01*
X452065Y304745D01*
X442015Y304745D01*
X442015Y294695D01*D02*
X442015Y386135D02*
X452065Y386135D01*
X452065Y396185D01*
X442015Y396185D01*
X442015Y386135D01*D02*
X640135Y315015D02*
X650185Y315015D01*
X650185Y325065D01*
X640135Y325065D01*
X640135Y315015D01*D02*
X640135Y370895D02*
X650185Y370895D01*
X650185Y380945D01*
X640135Y380945D01*
X640135Y370895D01*D02*
X569015Y284535D02*
X579065Y284535D01*
X579065Y294585D01*
X569015Y294585D01*
X569015Y284535D01*D02*
X452175Y457255D02*
X462225Y457255D01*
X462225Y467305D01*
X452175Y467305D01*
X452175Y457255D01*D02*
X645215Y91495D02*
X655265Y91495D01*
X655265Y101545D01*
X645215Y101545D01*
X645215Y91495D01*D02*
G54D15*
X726440Y248920D03*
X116840Y172720D03*
X223520Y340360D03*
X223520Y297180D03*
G54D16*
X695960Y281940D03*
X657860Y281940D03*
G54D17*
X637540Y124460D03*
G54D18*
X553720Y124460D03*
G54D19*
X43180Y464820D03*
X721360Y38100D03*
X721360Y469900D03*

M02*
