M48
METRIC,TZ
VER,1
FMAT,2
DETECT,ON
ATC,ON
T1C0.8890
T2C0.9949
T3C4.0000
T4C0.1778
%
T1
X137160Y76200
X162560
X213360
X187960
X238760
X294640Y66040
X345440
X345440Y121920
X296757
X421640Y299720
X396240
X345440
X370840
X320040
X548640Y340360
X421640
Y391160
X396240
X619760Y320040
X15240Y171873
X60113
X15240Y106680
X60113
X238760Y132080
X111760
X548640Y172720
X726440
X675640Y248920
X701040
X650240
X599440
X624840
X574040
X548640
X574040Y172720
X650240
X675640
X701040
X599440
X624840
X726440Y248920
X619760Y375920
X548640Y289560
X523240
X345440Y462280
Y335280
X431800Y462280
X279400
X254000
X548640Y411480
X523240
X406400Y71120
Y121920
X142240Y172720
X167640
X193040
X243840
X218440
X269240
X320040
X294640
X345440
X370840
X396240
X421640
X447040
X116840
Y248920
X142240
X167640
X193040
X218440
X243840
X269240
X294640
X320040
X345440
X370840
X396240
X421640
X447040
X624840Y96520
T2
X111760Y76200
X447040Y299720
Y391160
X645160Y320040
Y375920
X574040Y289560
X457200Y462280
X650240Y96520
T3
X43180Y464820
X721360Y38100
Y469900
T4
X695960Y421640
Y375920
Y281940
X657860
X223520Y340360
Y297180
X276860Y340360
Y297180
X637540Y124460
X553720
M30
