G04 Generated by Ultiboard 14.0 *
%FSLAX34Y34*%
%MOMM*%

%ADD10C,0.0001*%
%ADD11C,0.8890*%
%ADD12C,0.9949*%
%ADD13C,0.1778*%
%ADD14C,4.0000*%


G04 ColorRGB 000000 for the following layer *
%LNDrill-Copper Top-Copper Bottom*%
%LPD*%
G54D11*
X137160Y76200D03*
X162560Y76200D03*
X213360Y76200D03*
X187960Y76200D03*
X238760Y76200D03*
X294640Y66040D03*
X345440Y66040D03*
X345440Y121920D03*
X296757Y121920D03*
X421640Y299720D03*
X396240Y299720D03*
X345440Y299720D03*
X370840Y299720D03*
X320040Y299720D03*
X548640Y340360D03*
X421640Y340360D03*
X421640Y391160D03*
X396240Y391160D03*
X619760Y320040D03*
X15240Y171873D03*
X60113Y171873D03*
X15240Y106680D03*
X60113Y106680D03*
X238760Y132080D03*
X111760Y132080D03*
X548640Y172720D03*
X726440Y172720D03*
X675640Y248920D03*
X701040Y248920D03*
X650240Y248920D03*
X599440Y248920D03*
X624840Y248920D03*
X574040Y248920D03*
X548640Y248920D03*
X574040Y172720D03*
X650240Y172720D03*
X675640Y172720D03*
X701040Y172720D03*
X599440Y172720D03*
X624840Y172720D03*
X726440Y248920D03*
X619760Y375920D03*
X548640Y289560D03*
X523240Y289560D03*
X345440Y462280D03*
X345440Y335280D03*
X431800Y462280D03*
X279400Y462280D03*
X254000Y462280D03*
X548640Y411480D03*
X523240Y411480D03*
X406400Y71120D03*
X406400Y121920D03*
X142240Y172720D03*
X167640Y172720D03*
X193040Y172720D03*
X243840Y172720D03*
X218440Y172720D03*
X269240Y172720D03*
X320040Y172720D03*
X294640Y172720D03*
X345440Y172720D03*
X370840Y172720D03*
X396240Y172720D03*
X421640Y172720D03*
X447040Y172720D03*
X116840Y172720D03*
X116840Y248920D03*
X142240Y248920D03*
X167640Y248920D03*
X193040Y248920D03*
X218440Y248920D03*
X243840Y248920D03*
X269240Y248920D03*
X294640Y248920D03*
X320040Y248920D03*
X345440Y248920D03*
X370840Y248920D03*
X396240Y248920D03*
X421640Y248920D03*
X447040Y248920D03*
X624840Y96520D03*
G54D12*
X111760Y76200D03*
X447040Y299720D03*
X447040Y391160D03*
X645160Y320040D03*
X645160Y375920D03*
X574040Y289560D03*
X457200Y462280D03*
X650240Y96520D03*
G54D13*
X695960Y421640D03*
X695960Y375920D03*
X695960Y281940D03*
X657860Y281940D03*
X223520Y340360D03*
X223520Y297180D03*
X276860Y340360D03*
X276860Y297180D03*
X637540Y124460D03*
X553720Y124460D03*
G54D14*
X43180Y464820D03*
X721360Y38100D03*
X721360Y469900D03*

M02*
